<?xml version="1.0" encoding="UTF-8"?>
<!-- Do not edit this file with editors other than draw.io -->
<!DOCTYPE svg PUBLIC "-//W3C//DTD SVG 1.1//EN" "http://www.w3.org/Graphics/SVG/1.1/DTD/svg11.dtd">
<svg xmlns="http://www.w3.org/2000/svg" style="background: transparent; background-color: transparent; color-scheme: light dark;" xmlns:xlink="http://www.w3.org/1999/xlink" version="1.1" width="209px" height="77px" viewBox="0 0 209 77" content="&lt;mxfile host=&quot;Electron&quot; agent=&quot;Mozilla/5.0 (Macintosh; Intel Mac OS X 10_15_7) AppleWebKit/537.36 (KHTML, like Gecko) draw.io/29.0.3 Chrome/140.0.7339.249 Electron/38.7.0 Safari/537.36&quot; version=&quot;29.0.3&quot; scale=&quot;1&quot; border=&quot;0&quot;&gt;&#10;  &lt;diagram name=&quot;Страница-1&quot; id=&quot;vrJBwFiP0G1NpzR6JU6A&quot;&gt;&#10;    &lt;mxGraphModel dx=&quot;325&quot; dy=&quot;239&quot; grid=&quot;1&quot; gridSize=&quot;10&quot; guides=&quot;1&quot; tooltips=&quot;1&quot; connect=&quot;1&quot; arrows=&quot;1&quot; fold=&quot;1&quot; page=&quot;1&quot; pageScale=&quot;1&quot; pageWidth=&quot;827&quot; pageHeight=&quot;1169&quot; math=&quot;0&quot; shadow=&quot;0&quot;&gt;&#10;      &lt;root&gt;&#10;        &lt;mxCell id=&quot;0&quot; /&gt;&#10;        &lt;mxCell id=&quot;1&quot; parent=&quot;0&quot; /&gt;&#10;        &lt;mxCell id=&quot;r5VThmamOhIpFtYYSAC9-8&quot; style=&quot;edgeStyle=orthogonalEdgeStyle;rounded=0;orthogonalLoop=1;jettySize=auto;html=1;flowAnimation=1;curved=1;strokeWidth=0.7874000000000001;flowAnimationDuration=3000;endArrow=none;endFill=0;shape=wire;dashed=1;fillColor=none;dashPattern=1 1;strokeColor=#FEFEFE;startFillColor=#FEFEFE;endFillColor=#FEFEFE;&quot; edge=&quot;1&quot; parent=&quot;1&quot; source=&quot;r5VThmamOhIpFtYYSAC9-1&quot;&gt;&#10;          &lt;mxGeometry relative=&quot;1&quot; as=&quot;geometry&quot;&gt;&#10;            &lt;mxPoint x=&quot;240&quot; y=&quot;249&quot; as=&quot;targetPoint&quot; /&gt;&#10;            &lt;Array as=&quot;points&quot;&gt;&#10;              &lt;mxPoint x=&quot;220&quot; y=&quot;220&quot; /&gt;&#10;              &lt;mxPoint x=&quot;220&quot; y=&quot;249&quot; /&gt;&#10;            &lt;/Array&gt;&#10;          &lt;/mxGeometry&gt;&#10;        &lt;/mxCell&gt;&#10;        &lt;mxCell id=&quot;r5VThmamOhIpFtYYSAC9-1&quot; value=&quot;&quot; style=&quot;sketch=0;outlineConnect=0;fontColor=#232F3E;gradientColor=none;fillColor=#FEFEFE;strokeColor=none;dashed=0;verticalLabelPosition=bottom;verticalAlign=top;align=center;html=1;fontSize=12;fontStyle=0;aspect=fixed;pointerEvents=1;shape=mxgraph.aws4.iot_thing_temperature_vibration_sensor;strokeWidth=0;&quot; vertex=&quot;1&quot; parent=&quot;1&quot;&gt;&#10;          &lt;mxGeometry x=&quot;181&quot; y=&quot;210.62&quot; width=&quot;18&quot; height=&quot;18&quot; as=&quot;geometry&quot; /&gt;&#10;        &lt;/mxCell&gt;&#10;        &lt;mxCell id=&quot;r5VThmamOhIpFtYYSAC9-9&quot; style=&quot;rounded=0;orthogonalLoop=1;jettySize=auto;html=1;flowAnimation=1;strokeWidth=0.7874000000000001;flowAnimationDuration=3000;endArrow=block;endFill=1;shape=wire;dashed=1;dashPattern=1 1;strokeColor=#FEFEFE;startFillColor=#FEFEFE;endFillColor=#FEFEFE;&quot; edge=&quot;1&quot; parent=&quot;1&quot; source=&quot;r5VThmamOhIpFtYYSAC9-2&quot;&gt;&#10;          &lt;mxGeometry relative=&quot;1&quot; as=&quot;geometry&quot;&gt;&#10;            &lt;mxPoint x=&quot;248&quot; y=&quot;249.62&quot; as=&quot;targetPoint&quot; /&gt;&#10;          &lt;/mxGeometry&gt;&#10;        &lt;/mxCell&gt;&#10;        &lt;mxCell id=&quot;r5VThmamOhIpFtYYSAC9-2&quot; value=&quot;&quot; style=&quot;sketch=0;outlineConnect=0;fontColor=#232F3E;gradientColor=none;fillColor=#FEFEFE;strokeColor=none;dashed=0;verticalLabelPosition=bottom;verticalAlign=top;align=center;html=1;fontSize=12;fontStyle=0;aspect=fixed;pointerEvents=1;shape=mxgraph.aws4.iot_thing_temperature_humidity_sensor;strokeWidth=0;&quot; vertex=&quot;1&quot; parent=&quot;1&quot;&gt;&#10;          &lt;mxGeometry x=&quot;181&quot; y=&quot;240.62&quot; width=&quot;18&quot; height=&quot;18&quot; as=&quot;geometry&quot; /&gt;&#10;        &lt;/mxCell&gt;&#10;        &lt;mxCell id=&quot;r5VThmamOhIpFtYYSAC9-3&quot; value=&quot;&quot; style=&quot;sketch=0;outlineConnect=0;fontColor=#232F3E;gradientColor=none;fillColor=#FEFEFE;strokeColor=none;dashed=0;verticalLabelPosition=bottom;verticalAlign=top;align=center;html=1;fontSize=12;fontStyle=0;aspect=fixed;pointerEvents=1;shape=mxgraph.aws4.iot_thing_temperature_sensor;strokeWidth=0;strokeOpacity=100;fillOpacity=100;&quot; vertex=&quot;1&quot; parent=&quot;1&quot;&gt;&#10;          &lt;mxGeometry x=&quot;180&quot; y=&quot;267.62&quot; width=&quot;20&quot; height=&quot;20&quot; as=&quot;geometry&quot; /&gt;&#10;        &lt;/mxCell&gt;&#10;        &lt;mxCell id=&quot;r5VThmamOhIpFtYYSAC9-5&quot; value=&quot;&quot; style=&quot;sketch=0;points=[[0,0,0],[0.25,0,0],[0.5,0,0],[0.75,0,0],[1,0,0],[0,1,0],[0.25,1,0],[0.5,1,0],[0.75,1,0],[1,1,0],[0,0.25,0],[0,0.5,0],[0,0.75,0],[1,0.25,0],[1,0.5,0],[1,0.75,0]];outlineConnect=0;fontColor=#232F3E;fillColor=none;strokeColor=#ffffff;dashed=0;verticalLabelPosition=bottom;verticalAlign=top;align=center;html=1;fontSize=12;fontStyle=0;aspect=fixed;shape=mxgraph.aws4.resourceIcon;resIcon=mxgraph.aws4.machine_learning;fillStyle=auto;strokeWidth=0.7874000000000001;&quot; vertex=&quot;1&quot; parent=&quot;1&quot;&gt;&#10;          &lt;mxGeometry x=&quot;320&quot; y=&quot;214.8&quot; width=&quot;67.63&quot; height=&quot;67.63&quot; as=&quot;geometry&quot; /&gt;&#10;        &lt;/mxCell&gt;&#10;        &lt;mxCell id=&quot;r5VThmamOhIpFtYYSAC9-11&quot; style=&quot;rounded=0;orthogonalLoop=1;jettySize=auto;html=1;flowAnimation=1;strokeWidth=0.7874000000000001;flowAnimationDuration=3000;endArrow=blockThin;endFill=1;shape=wire;dashed=1;strokeColor=#FEFEFE;startFillColor=#FEFEFE;endFillColor=#FEFEFE;&quot; edge=&quot;1&quot; parent=&quot;1&quot; source=&quot;r5VThmamOhIpFtYYSAC9-6&quot; target=&quot;r5VThmamOhIpFtYYSAC9-5&quot;&gt;&#10;          &lt;mxGeometry relative=&quot;1&quot; as=&quot;geometry&quot; /&gt;&#10;        &lt;/mxCell&gt;&#10;        &lt;mxCell id=&quot;r5VThmamOhIpFtYYSAC9-12&quot; value=&quot;&quot; style=&quot;edgeStyle=orthogonalEdgeStyle;rounded=0;orthogonalLoop=1;jettySize=auto;html=1;flowAnimation=1;curved=1;strokeWidth=0.7874000000000001;flowAnimationDuration=3000;endArrow=none;endFill=0;shape=wire;dashed=1;dashPattern=1 1;strokeColor=#FEFEFE;startFillColor=#FEFEFE;endFillColor=#FEFEFE;&quot; edge=&quot;1&quot; parent=&quot;1&quot; source=&quot;r5VThmamOhIpFtYYSAC9-3&quot;&gt;&#10;          &lt;mxGeometry relative=&quot;1&quot; as=&quot;geometry&quot;&gt;&#10;            &lt;mxPoint x=&quot;240&quot; y=&quot;250&quot; as=&quot;targetPoint&quot; /&gt;&#10;            &lt;mxPoint x=&quot;180&quot; y=&quot;300&quot; as=&quot;sourcePoint&quot; /&gt;&#10;            &lt;Array as=&quot;points&quot;&gt;&#10;              &lt;mxPoint x=&quot;220&quot; y=&quot;278&quot; /&gt;&#10;              &lt;mxPoint x=&quot;220&quot; y=&quot;250&quot; /&gt;&#10;            &lt;/Array&gt;&#10;          &lt;/mxGeometry&gt;&#10;        &lt;/mxCell&gt;&#10;        &lt;mxCell id=&quot;r5VThmamOhIpFtYYSAC9-6&quot; value=&quot;&quot; style=&quot;sketch=0;shadow=0;dashed=0;html=1;strokeColor=#FEFEFE;labelPosition=center;verticalLabelPosition=bottom;verticalAlign=top;outlineConnect=0;align=center;shape=mxgraph.office.databases.database_mini_3;fillColor=none;gradientColor=none;&quot; vertex=&quot;1&quot; parent=&quot;1&quot;&gt;&#10;          &lt;mxGeometry x=&quot;256&quot; y=&quot;228.62&quot; width=&quot;38&quot; height=&quot;40&quot; as=&quot;geometry&quot; /&gt;&#10;        &lt;/mxCell&gt;&#10;      &lt;/root&gt;&#10;    &lt;/mxGraphModel&gt;&#10;  &lt;/diagram&gt;&#10;&lt;/mxfile&gt;&#10;"><defs><style>@keyframes ge-flow-animation-zlybFW2DV2qA4U6LjIvv {&#xa;  to {&#xa;    stroke-dashoffset: 0;&#xa;  }&#xa;}</style></defs><g><g data-cell-id="0"><g data-cell-id="1"><g data-cell-id="r5VThmamOhIpFtYYSAC9-8"><g transform="translate(0.5,0.5)"><path d="M 19 8.61 Q 40.01 8.61 40.01 23.31 Q 40.01 38 60 38" fill="none" stroke="#fefefe" stroke-width="0.79" stroke-miterlimit="10" pointer-events="stroke" stroke-dasharray="0.79 0.79" style="stroke: rgb(254, 254, 254); animation: 296ms linear 0s infinite normal none running ge-flow-animation-zlybFW2DV2qA4U6LjIvv; stroke-dashoffset: 1.58;"/><path d="M 19 8.61 Q 40.01 8.61 40.01 23.31 Q 40.01 38 60 38" fill="none" stroke="none" pointer-events="stroke"/></g></g><g data-cell-id="r5VThmamOhIpFtYYSAC9-1"><g transform="translate(0.5,0.5)"><rect x="1" y="-0.38" width="18" height="18" fill="none" stroke="none" pointer-events="all"/><path d="M 10 12.29 C 9.85 12.29 9.72 12.21 9.65 12.09 C 9.57 11.96 9.57 11.81 9.65 11.68 C 9.72 11.55 9.85 11.47 10 11.47 C 10.15 11.47 10.28 11.55 10.35 11.68 C 10.43 11.81 10.43 11.96 10.35 12.09 C 10.28 12.21 10.15 12.29 10 12.29 Z M 10.41 10.73 L 10.41 6.17 L 9.59 6.17 L 9.59 10.73 C 9.12 10.9 8.77 11.35 8.77 11.88 C 8.77 12.56 9.32 13.11 10 13.11 C 10.68 13.11 11.23 12.56 11.23 11.88 C 11.23 11.35 10.88 10.9 10.41 10.73 Z M 11.03 13.15 C 10.64 13.47 10.15 13.59 9.64 13.48 C 9.01 13.35 8.51 12.83 8.39 12.19 C 8.27 11.58 8.52 10.95 9.02 10.58 L 9.18 10.46 L 9.18 4.53 C 9.18 4.08 9.55 3.71 10 3.71 C 10.45 3.71 10.82 4.08 10.82 4.53 L 10.82 10.46 L 10.98 10.58 C 11.4 10.9 11.64 11.37 11.64 11.88 C 11.64 12.38 11.42 12.84 11.03 13.15 Z M 11.64 10.06 L 11.64 4.53 C 11.64 3.63 10.9 2.89 10 2.89 C 9.1 2.89 8.36 3.63 8.36 4.53 L 8.36 10.06 C 7.73 10.63 7.43 11.49 7.59 12.34 C 7.76 13.3 8.52 14.09 9.48 14.28 C 9.65 14.32 9.82 14.34 10 14.34 C 10.56 14.34 11.11 14.14 11.55 13.79 C 12.12 13.32 12.46 12.62 12.45 11.88 C 12.46 11.19 12.16 10.52 11.64 10.06 Z M 7.63 9.2 L 6.99 9.71 L 6.52 9.12 L 6.68 7.97 L 6.13 7.19 L 6.68 6.4 L 6.52 5.26 L 6.99 4.67 L 7.63 5.18 L 7.38 5.49 L 7.54 6.61 L 7.13 7.19 L 7.54 7.77 L 7.38 8.89 Z M 5.83 9.59 L 6.62 10.38 L 6.05 10.96 L 4.95 9.87 L 5.22 8.26 L 4.32 7.19 L 5.22 6.12 L 4.95 4.51 L 6.05 3.42 L 6.62 4 L 5.83 4.79 L 6.09 6.35 L 5.39 7.19 L 6.09 8.02 Z M 12.45 9.85 L 14.09 9.85 L 14.09 9.03 L 12.45 9.03 Z M 12.45 8.21 L 14.5 8.21 L 14.5 7.39 L 12.45 7.39 Z M 12.45 6.57 L 14.09 6.57 L 14.09 5.76 L 12.45 5.76 Z M 12.45 4.94 L 14.5 4.94 L 14.5 4.12 L 12.45 4.12 Z M 16.14 14.29 C 16.14 14.55 15.93 14.76 15.67 14.76 L 4.33 14.76 C 4.07 14.76 3.86 14.55 3.86 14.29 L 3.86 2.95 C 3.86 2.69 4.07 2.48 4.33 2.48 L 15.67 2.48 C 15.93 2.48 16.14 2.69 16.14 2.95 Z M 19 4.94 L 19 4.12 L 16.95 4.12 L 16.95 2.95 C 16.95 2.24 16.38 1.67 15.67 1.67 L 14.5 1.67 L 14.5 -0.38 L 13.68 -0.38 L 13.68 1.67 L 12.45 1.67 L 12.45 -0.38 L 11.64 -0.38 L 11.64 1.67 L 10.41 1.67 L 10.41 -0.38 L 9.59 -0.38 L 9.59 1.67 L 8.36 1.67 L 8.36 -0.38 L 7.55 -0.38 L 7.55 1.67 L 6.32 1.67 L 6.32 -0.38 L 5.5 -0.38 L 5.5 1.67 L 4.33 1.67 C 3.62 1.67 3.05 2.24 3.05 2.95 L 3.05 4.12 L 1 4.12 L 1 4.94 L 3.05 4.94 L 3.05 6.17 L 1 6.17 L 1 6.98 L 3.05 6.98 L 3.05 8.21 L 1 8.21 L 1 9.03 L 3.05 9.03 L 3.05 10.26 L 1 10.26 L 1 11.07 L 3.05 11.07 L 3.05 12.3 L 1 12.3 L 1 13.12 L 3.05 13.12 L 3.05 14.29 C 3.05 15 3.62 15.57 4.33 15.57 L 5.5 15.57 L 5.5 17.62 L 6.32 17.62 L 6.32 15.57 L 7.55 15.57 L 7.55 17.62 L 8.36 17.62 L 8.36 15.57 L 9.59 15.57 L 9.59 17.62 L 10.41 17.62 L 10.41 15.57 L 11.64 15.57 L 11.64 17.62 L 12.45 17.62 L 12.45 15.57 L 13.68 15.57 L 13.68 17.62 L 14.5 17.62 L 14.5 15.57 L 15.67 15.57 C 16.38 15.57 16.95 15 16.95 14.29 L 16.95 13.12 L 19 13.12 L 19 12.3 L 16.95 12.3 L 16.95 11.07 L 19 11.07 L 19 10.26 L 16.95 10.26 L 16.95 9.03 L 19 9.03 L 19 8.21 L 16.95 8.21 L 16.95 6.98 L 19 6.98 L 19 6.17 L 16.95 6.17 L 16.95 4.94 Z" fill="#fefefe" stroke="none" pointer-events="all" style="fill: rgb(254, 254, 254);"/></g></g><g data-cell-id="r5VThmamOhIpFtYYSAC9-9"><g transform="translate(0.5,0.5)"><path d="M 19 38.62 L 60.33 38.62" fill="none" stroke="#fefefe" stroke-width="0.79" stroke-miterlimit="10" pointer-events="stroke" stroke-dasharray="0.79 0.79" style="stroke: rgb(254, 254, 254); animation: 296ms linear 0s infinite normal none running ge-flow-animation-zlybFW2DV2qA4U6LjIvv; stroke-dashoffset: 1.58;"/><path d="M 19 38.62 L 60.33 38.62" fill="none" stroke="none" pointer-events="stroke"/><path d="M 67.12 38.62 L 60.33 42.01 L 60.33 35.23 Z" fill="#fefefe" stroke="#fefefe" stroke-width="0.79" stroke-miterlimit="10" pointer-events="all" style="fill: rgb(254, 254, 254); stroke: rgb(254, 254, 254);"/></g></g><g data-cell-id="r5VThmamOhIpFtYYSAC9-2"><g transform="translate(0.5,0.5)"><rect x="1" y="29.62" width="18" height="18" fill="none" stroke="none" pointer-events="all"/><path d="M 6.09 37.14 C 5.77 37.14 5.5 36.88 5.5 36.55 C 5.5 36.29 5.84 35.65 6.09 35.21 C 6.33 35.65 6.67 36.29 6.67 36.55 C 6.67 36.88 6.41 37.14 6.09 37.14 Z M 6.45 34.18 C 6.38 34.04 6.24 33.96 6.09 33.96 C 5.93 33.96 5.79 34.04 5.72 34.18 L 5.52 34.55 C 5.08 35.32 4.68 36.06 4.68 36.55 C 4.68 37.33 5.31 37.96 6.09 37.96 C 6.86 37.96 7.49 37.33 7.49 36.55 C 7.49 36.06 7.1 35.32 6.65 34.55 Z M 12.45 39.85 L 14.09 39.85 L 14.09 39.03 L 12.45 39.03 Z M 12.45 38.21 L 14.5 38.21 L 14.5 37.39 L 12.45 37.39 Z M 12.45 36.57 L 14.09 36.57 L 14.09 35.76 L 12.45 35.76 Z M 12.45 34.94 L 14.5 34.94 L 14.5 34.12 L 12.45 34.12 Z M 10 42.29 C 9.77 42.29 9.59 42.11 9.59 41.88 C 9.59 41.66 9.77 41.47 10 41.47 C 10.23 41.47 10.41 41.66 10.41 41.88 C 10.41 42.11 10.23 42.29 10 42.29 Z M 10.41 40.73 L 10.41 36.17 L 9.59 36.17 L 9.59 40.73 C 9.12 40.9 8.77 41.35 8.77 41.88 C 8.77 42.56 9.32 43.11 10 43.11 C 10.68 43.11 11.23 42.56 11.23 41.88 C 11.23 41.35 10.88 40.9 10.41 40.73 Z M 11.03 43.15 C 10.64 43.47 10.15 43.59 9.64 43.48 C 9.01 43.35 8.51 42.83 8.39 42.19 C 8.28 41.57 8.51 40.97 9.02 40.58 L 9.18 40.46 L 9.18 34.53 C 9.18 34.08 9.55 33.71 10 33.71 C 10.45 33.71 10.82 34.08 10.82 34.53 L 10.82 40.46 L 10.98 40.58 C 11.4 40.9 11.64 41.37 11.64 41.88 C 11.64 42.38 11.42 42.84 11.03 43.15 Z M 11.64 40.06 L 11.64 34.53 C 11.64 33.63 10.9 32.89 10 32.89 C 9.1 32.89 8.36 33.63 8.36 34.53 L 8.36 40.06 C 7.73 40.63 7.43 41.49 7.59 42.34 C 7.76 43.3 8.52 44.09 9.48 44.28 C 9.65 44.32 9.82 44.34 10 44.34 C 10.56 44.34 11.11 44.14 11.55 43.79 C 12.12 43.32 12.46 42.62 12.45 41.88 C 12.45 41.18 12.16 40.53 11.64 40.06 Z M 16.14 44.29 C 16.14 44.55 15.93 44.76 15.67 44.76 L 4.33 44.76 C 4.07 44.76 3.86 44.55 3.86 44.29 L 3.86 32.95 C 3.86 32.69 4.07 32.48 4.33 32.48 L 15.67 32.48 C 15.93 32.48 16.14 32.69 16.14 32.95 Z M 19 34.94 L 19 34.12 L 16.95 34.12 L 16.95 32.95 C 16.95 32.24 16.38 31.67 15.67 31.67 L 14.5 31.67 L 14.5 29.62 L 13.68 29.62 L 13.68 31.67 L 12.45 31.67 L 12.45 29.62 L 11.64 29.62 L 11.64 31.67 L 10.41 31.67 L 10.41 29.62 L 9.59 29.62 L 9.59 31.67 L 8.36 31.67 L 8.36 29.62 L 7.55 29.62 L 7.55 31.67 L 6.32 31.67 L 6.32 29.62 L 5.5 29.62 L 5.5 31.67 L 4.33 31.67 C 3.62 31.67 3.05 32.24 3.05 32.95 L 3.05 34.12 L 1 34.12 L 1 34.94 L 3.05 34.94 L 3.05 36.17 L 1 36.17 L 1 36.98 L 3.05 36.98 L 3.05 38.21 L 1 38.21 L 1 39.03 L 3.05 39.03 L 3.05 40.26 L 1 40.26 L 1 41.07 L 3.05 41.07 L 3.05 42.3 L 1 42.3 L 1 43.12 L 3.05 43.12 L 3.05 44.29 C 3.05 45 3.62 45.57 4.33 45.57 L 5.5 45.57 L 5.5 47.62 L 6.32 47.62 L 6.32 45.57 L 7.55 45.57 L 7.55 47.62 L 8.36 47.62 L 8.36 45.57 L 9.59 45.57 L 9.59 47.62 L 10.41 47.62 L 10.41 45.57 L 11.64 45.57 L 11.64 47.62 L 12.45 47.62 L 12.45 45.57 L 13.68 45.57 L 13.68 47.62 L 14.5 47.62 L 14.5 45.57 L 15.67 45.57 C 16.38 45.57 16.95 45 16.95 44.29 L 16.95 43.12 L 19 43.12 L 19 42.3 L 16.95 42.3 L 16.95 41.07 L 19 41.07 L 19 40.26 L 16.95 40.26 L 16.95 39.03 L 19 39.03 L 19 38.21 L 16.95 38.21 L 16.95 36.98 L 19 36.98 L 19 36.17 L 16.95 36.17 L 16.95 34.94 Z" fill="#fefefe" stroke="none" pointer-events="all" style="fill: rgb(254, 254, 254);"/></g></g><g data-cell-id="r5VThmamOhIpFtYYSAC9-3"><g transform="translate(0.5,0.5)"><rect x="0" y="56.62" width="20" height="20" fill="none" stroke="none" pointer-events="all"/><path d="M 10 70.7 C 9.75 70.7 9.55 70.5 9.55 70.25 C 9.55 70 9.75 69.79 10 69.79 C 10.25 69.79 10.45 70 10.45 70.25 C 10.45 70.5 10.25 70.7 10 70.7 Z M 10.45 68.97 L 10.45 63.89 L 9.55 63.89 L 9.55 68.97 C 9.02 69.15 8.64 69.65 8.64 70.25 C 8.64 71 9.25 71.61 10 71.61 C 10.75 71.61 11.36 71 11.36 70.25 C 11.36 69.65 10.98 69.15 10.45 68.97 Z M 11.15 71.66 C 10.71 72.01 10.17 72.14 9.61 72.02 C 8.9 71.88 8.34 71.3 8.21 70.59 C 8.08 69.91 8.35 69.21 8.91 68.8 L 9.09 68.66 L 9.09 62.07 C 9.09 61.57 9.5 61.17 10 61.17 C 10.5 61.17 10.91 61.57 10.91 62.07 L 10.91 68.66 L 11.09 68.8 C 11.55 69.15 11.82 69.68 11.82 70.25 C 11.82 70.8 11.57 71.31 11.15 71.66 Z M 11.82 68.22 L 11.82 62.07 C 11.82 61.07 11 60.26 10 60.26 C 9 60.26 8.18 61.07 8.18 62.07 L 8.18 68.22 C 7.47 68.86 7.15 69.81 7.32 70.75 C 7.52 71.83 8.36 72.69 9.42 72.91 C 9.61 72.95 9.8 72.97 10 72.97 C 10.62 72.97 11.23 72.76 11.72 72.36 C 12.36 71.85 12.73 71.07 12.73 70.25 C 12.73 69.47 12.4 68.74 11.82 68.22 Z M 12.73 67.98 L 14.55 67.98 L 14.55 67.07 L 12.73 67.07 Z M 12.73 66.17 L 15 66.17 L 15 65.26 L 12.73 65.26 Z M 12.73 64.35 L 14.55 64.35 L 14.55 63.44 L 12.73 63.44 Z M 12.73 62.53 L 15 62.53 L 15 61.62 L 12.73 61.62 Z M 16.82 72.92 C 16.82 73.21 16.59 73.44 16.3 73.44 L 3.7 73.44 C 3.41 73.44 3.18 73.21 3.18 72.92 L 3.18 60.32 C 3.18 60.03 3.41 59.8 3.7 59.8 L 16.3 59.8 C 16.59 59.8 16.82 60.03 16.82 60.32 Z M 20 62.53 L 20 61.62 L 17.73 61.62 L 17.73 60.32 C 17.73 59.53 17.09 58.89 16.3 58.89 L 15 58.89 L 15 56.62 L 14.09 56.62 L 14.09 58.89 L 12.73 58.89 L 12.73 56.62 L 11.82 56.62 L 11.82 58.89 L 10.45 58.89 L 10.45 56.62 L 9.55 56.62 L 9.55 58.89 L 8.18 58.89 L 8.18 56.62 L 7.27 56.62 L 7.27 58.89 L 5.91 58.89 L 5.91 56.62 L 5 56.62 L 5 58.89 L 3.7 58.89 C 2.91 58.89 2.27 59.53 2.27 60.32 L 2.27 61.62 L 0 61.62 L 0 62.53 L 2.27 62.53 L 2.27 63.89 L 0 63.89 L 0 64.8 L 2.27 64.8 L 2.27 66.17 L 0 66.17 L 0 67.07 L 2.27 67.07 L 2.27 68.44 L 0 68.44 L 0 69.35 L 2.27 69.35 L 2.27 70.71 L 0 70.71 L 0 71.62 L 2.27 71.62 L 2.27 72.92 C 2.27 73.71 2.91 74.35 3.7 74.35 L 5 74.35 L 5 76.62 L 5.91 76.62 L 5.91 74.35 L 7.27 74.35 L 7.27 76.62 L 8.18 76.62 L 8.18 74.35 L 9.55 74.35 L 9.55 76.62 L 10.45 76.62 L 10.45 74.35 L 11.82 74.35 L 11.82 76.62 L 12.73 76.62 L 12.73 74.35 L 14.09 74.35 L 14.09 76.62 L 15 76.62 L 15 74.35 L 16.3 74.35 C 17.09 74.35 17.73 73.71 17.73 72.92 L 17.73 71.62 L 20 71.62 L 20 70.71 L 17.73 70.71 L 17.73 69.35 L 20 69.35 L 20 68.44 L 17.73 68.44 L 17.73 67.07 L 20 67.07 L 20 66.17 L 17.73 66.17 L 17.73 64.8 L 20 64.8 L 20 63.89 L 17.73 63.89 L 17.73 62.53 Z" fill="#fefefe" stroke="none" pointer-events="all" style="fill: rgb(254, 254, 254);"/></g></g><g data-cell-id="r5VThmamOhIpFtYYSAC9-5"><g transform="translate(0.5,0.5)"><path d="M 140 3.8 L 207.63 3.8 L 207.63 71.43 L 140 71.43 Z" fill="none" stroke="none" pointer-events="all"/><path d="M 172.84 44.01 L 172.84 36.83 L 167.67 33.83 L 168.64 32.16 L 172.84 34.6 L 172.84 15.08 L 167.55 12.64 L 162.22 15.32 L 162.22 22.18 L 160.28 22.18 L 160.28 16.3 L 155.46 18.73 L 155.46 26.11 L 161.25 29.35 L 167.04 26.14 L 167.04 18.32 L 168.97 18.32 L 168.97 26.71 C 168.97 27.06 168.78 27.38 168.48 27.55 L 162.22 31.03 L 162.22 35.7 L 168.47 39.32 C 168.78 39.49 168.97 39.81 168.97 40.16 L 168.97 46.24 Z M 172.84 46.24 L 160.97 53.07 L 160.01 51.4 L 167.04 47.35 L 167.04 40.74 L 161.28 37.61 L 154.84 41.32 L 153.88 39.64 L 160.28 35.95 L 160.29 31.02 L 154.52 27.8 L 148.7 31.03 L 148.7 35.37 L 153.76 32.45 L 154.72 34.13 L 148.7 37.59 L 148.7 42.94 L 154.47 46.52 L 160.27 43.18 L 161.23 44.85 L 155.46 48.25 L 155.46 55.26 L 160.67 58.41 L 167.97 54.03 L 168.96 55.69 L 162.53 59.54 L 167.59 62.61 L 172.84 60.19 Z M 174.77 14.46 L 174.77 60.8 C 174.77 61.18 174.55 61.52 174.21 61.68 L 167.93 64.58 C 167.8 64.64 167.66 64.67 167.53 64.67 C 167.35 64.67 167.18 64.62 167.02 64.53 L 153.99 56.63 C 153.7 56.45 153.53 56.14 153.53 55.8 L 153.53 48.25 L 147.23 44.3 C 146.94 44.12 146.77 43.81 146.77 43.48 L 146.77 42.89 C 146.77 42.87 146.77 42.85 146.77 42.83 L 146.77 31.11 C 146.77 31.09 146.77 31.07 146.77 31.05 L 146.77 30.46 C 146.77 30.11 146.96 29.78 147.27 29.61 L 153.53 26.14 L 153.53 18.14 C 153.53 17.77 153.73 17.44 154.06 17.28 L 167.09 10.7 C 167.35 10.57 167.66 10.56 167.93 10.69 L 174.21 13.58 C 174.55 13.74 174.77 14.08 174.77 14.46 Z M 200.75 42.36 C 200.64 42.12 200.44 41.93 200.18 41.85 L 196.86 40.7 C 197.14 38.62 197.14 36.53 196.85 34.46 L 200.17 33.3 C 200.42 33.21 200.62 33.02 200.73 32.78 C 200.84 32.54 200.84 32.26 200.74 32.01 L 196.75 22.45 C 196.65 22.21 196.45 22.02 196.2 21.92 C 195.96 21.83 195.68 21.84 195.44 21.96 L 192.27 23.5 C 191 21.84 189.52 20.36 187.85 19.1 L 189.38 15.92 C 189.49 15.69 189.51 15.41 189.41 15.16 C 189.31 14.91 189.12 14.71 188.88 14.61 L 179.3 10.67 C 179.05 10.57 178.78 10.58 178.53 10.68 C 178.29 10.79 178.11 11 178.02 11.25 L 176.6 15.34 L 178.42 15.97 L 179.51 12.85 L 187.2 16.01 L 185.76 18.99 C 185.56 19.42 185.69 19.93 186.08 20.2 C 188.06 21.59 189.77 23.3 191.18 25.28 C 191.45 25.66 191.96 25.8 192.39 25.59 L 195.36 24.14 L 198.56 31.81 L 195.45 32.91 C 195.01 33.06 194.74 33.52 194.82 33.98 C 195.24 36.37 195.24 38.8 194.84 41.19 C 194.76 41.65 195.03 42.11 195.47 42.26 L 198.59 43.34 L 195.42 51.03 L 192.45 49.6 C 192.02 49.39 191.51 49.53 191.24 49.91 C 189.85 51.89 188.14 53.61 186.16 55.01 C 185.77 55.29 185.64 55.8 185.85 56.22 L 187.29 59.19 L 179.62 62.39 L 178.53 59.28 L 176.7 59.92 L 178.14 64 C 178.23 64.25 178.41 64.45 178.65 64.56 C 178.78 64.61 178.91 64.64 179.05 64.64 C 179.17 64.64 179.3 64.62 179.42 64.57 L 188.98 60.58 C 189.23 60.48 189.42 60.28 189.51 60.03 C 189.6 59.78 189.59 59.51 189.48 59.27 L 187.94 56.1 C 189.6 54.83 191.08 53.35 192.34 51.69 L 195.51 53.21 C 195.75 53.32 196.03 53.34 196.27 53.24 C 196.52 53.14 196.72 52.95 196.82 52.71 L 200.76 43.13 C 200.86 42.88 200.86 42.61 200.75 42.36 Z M 184.42 37.63 C 184.42 33.33 181.54 29.51 177.4 28.34 L 177.93 26.48 C 182.89 27.89 186.35 32.47 186.35 37.63 C 186.35 42.8 182.88 47.39 177.91 48.79 L 177.39 46.93 C 181.53 45.76 184.42 41.94 184.42 37.63 Z" fill="#ffffff" stroke="none" pointer-events="all" style="fill: rgb(255, 255, 255);"/></g></g><g data-cell-id="r5VThmamOhIpFtYYSAC9-11"><g transform="translate(0.5,0.5)"><path d="M 114 37.62 L 132.33 37.62" fill="none" stroke="#fefefe" stroke-width="0.79" stroke-miterlimit="10" pointer-events="stroke" stroke-dasharray="8" style="stroke: rgb(254, 254, 254); animation: 3000ms linear 0s infinite normal none running ge-flow-animation-zlybFW2DV2qA4U6LjIvv; stroke-dashoffset: 16;"/><path d="M 114 37.62 L 132.33 37.62" fill="none" stroke="none" pointer-events="stroke"/><path d="M 139.12 37.62 L 132.33 39.88 L 132.33 35.36 Z" fill="#fefefe" stroke="#fefefe" stroke-width="0.79" stroke-miterlimit="10" pointer-events="all" style="fill: rgb(254, 254, 254); stroke: rgb(254, 254, 254);"/></g></g><g data-cell-id="r5VThmamOhIpFtYYSAC9-12"><g transform="translate(0.5,0.5)"><path d="M 20 66.61 Q 40.01 66.61 40.01 52.81 Q 40.01 39.01 60 39" fill="none" stroke="#fefefe" stroke-width="0.79" stroke-miterlimit="10" pointer-events="stroke" stroke-dasharray="0.79 0.79" style="stroke: rgb(254, 254, 254); animation: 296ms linear 0s infinite normal none running ge-flow-animation-zlybFW2DV2qA4U6LjIvv; stroke-dashoffset: 1.58;"/><path d="M 20 66.61 Q 40.01 66.61 40.01 52.81 Q 40.01 39.01 60 39" fill="none" stroke="none" pointer-events="stroke"/></g></g><g data-cell-id="r5VThmamOhIpFtYYSAC9-6"><g><path d="M 76 45.48 C 77.83 46.43 81.13 47.24 84.84 47.67 C 91.36 48.42 98.33 48.4 104.56 47.74 C 108.42 47.33 111.78 46.59 114 45.49 L 114 52.44 C 113.71 54.36 111.08 55.37 108.23 56.05 C 101.79 57.44 90.71 57.62 82.86 56.28 C 79.59 55.65 76.28 54.59 76 52.44 Z M 76 21.59 C 76 19.76 81.9 17.84 94.64 17.62 C 107.28 17.62 114 19.72 114 21.59 C 114 23.65 105.86 25.53 95.87 25.53 C 85.62 25.62 76 23.95 76 21.59 Z M 76 24.37 C 77.83 25.31 81.13 26.13 84.84 26.56 C 91.36 27.3 98.33 27.29 104.56 26.63 C 108.42 26.21 111.78 25.47 114 24.38 L 114 31.32 C 113.71 33.24 111.08 34.26 108.23 34.94 C 101.79 36.33 90.71 36.51 82.86 35.17 C 79.59 34.54 76.28 33.48 76 31.32 Z M 76 34.88 C 77.83 35.82 81.13 36.64 84.84 37.06 C 91.36 37.81 98.33 37.79 104.56 37.13 C 108.42 36.72 111.78 35.98 114 34.88 L 114 41.84 C 113.71 43.75 111.08 44.77 108.23 45.44 C 101.79 46.84 90.71 47.02 82.86 45.67 C 79.59 45.04 76.28 43.98 76 41.83 Z" fill="none" stroke="#fefefe" stroke-miterlimit="10" pointer-events="all" style="stroke: rgb(254, 254, 254);"/></g></g></g></g></g></svg>