<?xml version="1.0" encoding="UTF-8"?>
<!-- Do not edit this file with editors other than draw.io -->
<!DOCTYPE svg PUBLIC "-//W3C//DTD SVG 1.1//EN" "http://www.w3.org/Graphics/SVG/1.1/DTD/svg11.dtd">
<svg xmlns="http://www.w3.org/2000/svg" style="background: transparent; background-color: transparent; color-scheme: light dark;" xmlns:xlink="http://www.w3.org/1999/xlink" version="1.1" width="270px" height="140px" viewBox="0 0 270 140" content="&lt;mxfile host=&quot;Electron&quot; agent=&quot;Mozilla/5.0 (Macintosh; Intel Mac OS X 10_15_7) AppleWebKit/537.36 (KHTML, like Gecko) draw.io/29.0.3 Chrome/140.0.7339.249 Electron/38.7.0 Safari/537.36&quot; version=&quot;29.0.3&quot; scale=&quot;1&quot; border=&quot;0&quot;&gt;&#10;  &lt;diagram name=&quot;Страница-1&quot; id=&quot;vrJBwFiP0G1NpzR6JU6A&quot;&gt;&#10;    &lt;mxGraphModel dx=&quot;841&quot; dy=&quot;619&quot; grid=&quot;1&quot; gridSize=&quot;10&quot; guides=&quot;1&quot; tooltips=&quot;1&quot; connect=&quot;1&quot; arrows=&quot;1&quot; fold=&quot;1&quot; page=&quot;1&quot; pageScale=&quot;1&quot; pageWidth=&quot;827&quot; pageHeight=&quot;1169&quot; math=&quot;0&quot; shadow=&quot;0&quot;&gt;&#10;      &lt;root&gt;&#10;        &lt;mxCell id=&quot;0&quot; /&gt;&#10;        &lt;mxCell id=&quot;1&quot; parent=&quot;0&quot; /&gt;&#10;        &lt;mxCell id=&quot;r5VThmamOhIpFtYYSAC9-8&quot; style=&quot;edgeStyle=orthogonalEdgeStyle;rounded=0;orthogonalLoop=1;jettySize=auto;html=1;flowAnimation=1;curved=1;strokeWidth=1.9684999999999997;flowAnimationDuration=3000;&quot; edge=&quot;1&quot; parent=&quot;1&quot; source=&quot;r5VThmamOhIpFtYYSAC9-1&quot; target=&quot;r5VThmamOhIpFtYYSAC9-6&quot;&gt;&#10;          &lt;mxGeometry relative=&quot;1&quot; as=&quot;geometry&quot;&gt;&#10;            &lt;mxPoint x=&quot;290&quot; y=&quot;250&quot; as=&quot;targetPoint&quot; /&gt;&#10;            &lt;Array as=&quot;points&quot;&gt;&#10;              &lt;mxPoint x=&quot;220&quot; y=&quot;199&quot; /&gt;&#10;              &lt;mxPoint x=&quot;220&quot; y=&quot;250&quot; /&gt;&#10;            &lt;/Array&gt;&#10;          &lt;/mxGeometry&gt;&#10;        &lt;/mxCell&gt;&#10;        &lt;mxCell id=&quot;r5VThmamOhIpFtYYSAC9-1&quot; value=&quot;&quot; style=&quot;sketch=0;outlineConnect=0;fontColor=#232F3E;gradientColor=none;fillColor=#FEFEFE;strokeColor=none;dashed=0;verticalLabelPosition=bottom;verticalAlign=top;align=center;html=1;fontSize=12;fontStyle=0;aspect=fixed;pointerEvents=1;shape=mxgraph.aws4.iot_thing_temperature_vibration_sensor;strokeWidth=0;&quot; vertex=&quot;1&quot; parent=&quot;1&quot;&gt;&#10;          &lt;mxGeometry x=&quot;140&quot; y=&quot;180&quot; width=&quot;38&quot; height=&quot;38&quot; as=&quot;geometry&quot; /&gt;&#10;        &lt;/mxCell&gt;&#10;        &lt;mxCell id=&quot;r5VThmamOhIpFtYYSAC9-9&quot; style=&quot;edgeStyle=orthogonalEdgeStyle;rounded=0;orthogonalLoop=1;jettySize=auto;html=1;flowAnimation=1;curved=1;strokeWidth=1.9684999999999997;flowAnimationDuration=3000;&quot; edge=&quot;1&quot; parent=&quot;1&quot; source=&quot;r5VThmamOhIpFtYYSAC9-2&quot; target=&quot;r5VThmamOhIpFtYYSAC9-6&quot;&gt;&#10;          &lt;mxGeometry relative=&quot;1&quot; as=&quot;geometry&quot;&gt;&#10;            &lt;mxPoint x=&quot;290&quot; y=&quot;249&quot; as=&quot;targetPoint&quot; /&gt;&#10;          &lt;/mxGeometry&gt;&#10;        &lt;/mxCell&gt;&#10;        &lt;mxCell id=&quot;r5VThmamOhIpFtYYSAC9-2&quot; value=&quot;&quot; style=&quot;sketch=0;outlineConnect=0;fontColor=#232F3E;gradientColor=none;fillColor=#FEFEFE;strokeColor=none;dashed=0;verticalLabelPosition=bottom;verticalAlign=top;align=center;html=1;fontSize=12;fontStyle=0;aspect=fixed;pointerEvents=1;shape=mxgraph.aws4.iot_thing_temperature_humidity_sensor;strokeWidth=0;&quot; vertex=&quot;1&quot; parent=&quot;1&quot;&gt;&#10;          &lt;mxGeometry x=&quot;140&quot; y=&quot;230&quot; width=&quot;38&quot; height=&quot;38&quot; as=&quot;geometry&quot; /&gt;&#10;        &lt;/mxCell&gt;&#10;        &lt;mxCell id=&quot;r5VThmamOhIpFtYYSAC9-3&quot; value=&quot;&quot; style=&quot;sketch=0;outlineConnect=0;fontColor=#232F3E;gradientColor=none;fillColor=#FEFEFE;strokeColor=none;dashed=0;verticalLabelPosition=bottom;verticalAlign=top;align=center;html=1;fontSize=12;fontStyle=0;aspect=fixed;pointerEvents=1;shape=mxgraph.aws4.iot_thing_temperature_sensor;strokeWidth=0;strokeOpacity=100;fillOpacity=100;&quot; vertex=&quot;1&quot; parent=&quot;1&quot;&gt;&#10;          &lt;mxGeometry x=&quot;140&quot; y=&quot;280&quot; width=&quot;40&quot; height=&quot;40&quot; as=&quot;geometry&quot; /&gt;&#10;        &lt;/mxCell&gt;&#10;        &lt;mxCell id=&quot;r5VThmamOhIpFtYYSAC9-5&quot; value=&quot;&quot; style=&quot;sketch=0;points=[[0,0,0],[0.25,0,0],[0.5,0,0],[0.75,0,0],[1,0,0],[0,1,0],[0.25,1,0],[0.5,1,0],[0.75,1,0],[1,1,0],[0,0.25,0],[0,0.5,0],[0,0.75,0],[1,0.25,0],[1,0.5,0],[1,0.75,0]];outlineConnect=0;fontColor=#232F3E;fillColor=none;strokeColor=#ffffff;dashed=0;verticalLabelPosition=bottom;verticalAlign=top;align=center;html=1;fontSize=12;fontStyle=0;aspect=fixed;shape=mxgraph.aws4.resourceIcon;resIcon=mxgraph.aws4.machine_learning;fillStyle=auto;strokeWidth=3.9369999999999994;&quot; vertex=&quot;1&quot; parent=&quot;1&quot;&gt;&#10;          &lt;mxGeometry x=&quot;330&quot; y=&quot;209.63&quot; width=&quot;78&quot; height=&quot;78&quot; as=&quot;geometry&quot; /&gt;&#10;        &lt;/mxCell&gt;&#10;        &lt;mxCell id=&quot;r5VThmamOhIpFtYYSAC9-11&quot; style=&quot;edgeStyle=orthogonalEdgeStyle;rounded=0;orthogonalLoop=1;jettySize=auto;html=1;curved=1;flowAnimation=1;strokeWidth=1.9684999999999997;flowAnimationDuration=3000;&quot; edge=&quot;1&quot; parent=&quot;1&quot; source=&quot;r5VThmamOhIpFtYYSAC9-6&quot; target=&quot;r5VThmamOhIpFtYYSAC9-5&quot;&gt;&#10;          &lt;mxGeometry relative=&quot;1&quot; as=&quot;geometry&quot; /&gt;&#10;        &lt;/mxCell&gt;&#10;        &lt;mxCell id=&quot;r5VThmamOhIpFtYYSAC9-12&quot; value=&quot;&quot; style=&quot;edgeStyle=orthogonalEdgeStyle;rounded=0;orthogonalLoop=1;jettySize=auto;html=1;flowAnimation=1;curved=1;strokeWidth=1.9684999999999997;flowAnimationDuration=3000;&quot; edge=&quot;1&quot; parent=&quot;1&quot; source=&quot;r5VThmamOhIpFtYYSAC9-3&quot; target=&quot;r5VThmamOhIpFtYYSAC9-6&quot;&gt;&#10;          &lt;mxGeometry relative=&quot;1&quot; as=&quot;geometry&quot;&gt;&#10;            &lt;mxPoint x=&quot;290&quot; y=&quot;250&quot; as=&quot;targetPoint&quot; /&gt;&#10;            &lt;mxPoint x=&quot;180&quot; y=&quot;300&quot; as=&quot;sourcePoint&quot; /&gt;&#10;            &lt;Array as=&quot;points&quot;&gt;&#10;              &lt;mxPoint x=&quot;220&quot; y=&quot;300&quot; /&gt;&#10;              &lt;mxPoint x=&quot;220&quot; y=&quot;249&quot; /&gt;&#10;            &lt;/Array&gt;&#10;          &lt;/mxGeometry&gt;&#10;        &lt;/mxCell&gt;&#10;        &lt;mxCell id=&quot;r5VThmamOhIpFtYYSAC9-6&quot; value=&quot;&quot; style=&quot;sketch=0;shadow=0;dashed=0;html=1;strokeColor=none;labelPosition=center;verticalLabelPosition=bottom;verticalAlign=top;outlineConnect=0;align=center;shape=mxgraph.office.databases.database_mini_3;fillColor=#FEFEFE;&quot; vertex=&quot;1&quot; parent=&quot;1&quot;&gt;&#10;          &lt;mxGeometry x=&quot;260&quot; y=&quot;217.25&quot; width=&quot;40&quot; height=&quot;62.75&quot; as=&quot;geometry&quot; /&gt;&#10;        &lt;/mxCell&gt;&#10;      &lt;/root&gt;&#10;    &lt;/mxGraphModel&gt;&#10;  &lt;/diagram&gt;&#10;&lt;/mxfile&gt;&#10;"><defs><style>@keyframes ge-flow-animation-g1DIMzR0uSa8WiUmmkkf {&#xa;  to {&#xa;    stroke-dashoffset: 0;&#xa;  }&#xa;}</style></defs><g><g data-cell-id="0"><g data-cell-id="1"><g data-cell-id="r5VThmamOhIpFtYYSAC9-8"><g transform="translate(0.5,0.5)"><path d="M 37 19 Q 79.03 19 79.03 44.52 Q 79.03 70.03 110.82 70.03" fill="none" stroke="#000000" stroke-width="1.97" stroke-miterlimit="10" pointer-events="stroke" stroke-dasharray="8" style="stroke: light-dark(rgb(0, 0, 0), rgb(255, 255, 255)); animation: 3000ms linear 0s infinite normal none running ge-flow-animation-g1DIMzR0uSa8WiUmmkkf; stroke-dashoffset: 16;"/><path d="M 116.8 70.03 L 108.83 74.02 L 110.82 70.03 L 108.83 66.05 Z" fill="#000000" stroke="#000000" stroke-width="1.97" stroke-miterlimit="10" pointer-events="all" style="fill: light-dark(rgb(0, 0, 0), rgb(255, 255, 255)); stroke: light-dark(rgb(0, 0, 0), rgb(255, 255, 255));"/></g></g><g data-cell-id="r5VThmamOhIpFtYYSAC9-1"><g transform="translate(0.5,0.5)"><rect x="-1" y="0" width="38" height="38" fill="none" stroke="none" pointer-events="all"/><path d="M 18 26.75 C 17.52 26.75 17.14 26.37 17.14 25.89 C 17.14 25.41 17.52 25.03 18 25.03 C 18.48 25.03 18.86 25.41 18.86 25.89 C 18.86 26.37 18.48 26.75 18 26.75 Z M 18.86 23.46 L 18.86 13.82 L 17.14 13.82 L 17.14 23.46 C 16.13 23.82 15.41 24.77 15.41 25.89 C 15.41 27.32 16.57 28.48 18 28.48 C 19.43 28.48 20.59 27.32 20.59 25.89 C 20.59 24.77 19.87 23.82 18.86 23.46 Z M 20.18 28.57 C 19.36 29.24 18.31 29.49 17.25 29.27 C 15.92 28.99 14.85 27.89 14.61 26.54 C 14.35 25.25 14.87 23.93 15.93 23.14 L 16.27 22.88 L 16.27 10.36 C 16.27 9.41 17.05 8.64 18 8.64 C 18.95 8.64 19.73 9.41 19.73 10.36 L 19.73 22.89 L 20.07 23.14 C 20.95 23.81 21.45 24.81 21.45 25.89 C 21.45 26.93 20.99 27.91 20.18 28.57 Z M 21.45 22.05 L 21.45 10.36 C 21.45 8.46 19.91 6.91 18 6.91 C 16.09 6.91 14.55 8.46 14.55 10.36 L 14.55 22.05 C 13.2 23.25 12.58 25.05 12.91 26.85 C 13.28 28.89 14.88 30.54 16.9 30.96 C 17.26 31.03 17.63 31.07 17.99 31.07 C 19.19 31.07 20.34 30.66 21.27 29.91 C 22.48 28.93 23.18 27.45 23.18 25.89 C 23.18 24.42 22.55 23.02 21.45 22.05 Z M 12.99 20.23 L 11.64 21.3 L 10.65 20.05 L 10.99 17.63 L 9.82 15.98 L 10.99 14.32 L 10.65 11.9 L 11.64 10.65 L 12.99 11.73 L 12.46 12.39 L 12.8 14.76 L 11.94 15.98 L 12.8 17.2 L 12.46 19.56 Z M 9.19 21.04 L 10.87 22.71 L 9.66 23.93 L 7.34 21.64 L 7.91 18.24 L 6.01 15.98 L 7.91 13.72 L 7.34 10.32 L 9.66 8.02 L 10.87 9.25 L 9.19 10.91 L 9.75 14.22 L 8.27 15.98 L 9.75 17.74 Z M 23.18 21.59 L 26.64 21.59 L 26.64 19.86 L 23.18 19.86 Z M 23.18 18.14 L 27.5 18.14 L 27.5 16.41 L 23.18 16.41 Z M 23.18 14.68 L 26.64 14.68 L 26.64 12.95 L 23.18 12.95 Z M 23.18 11.23 L 27.5 11.23 L 27.5 9.5 L 23.18 9.5 Z M 30.95 30.98 C 30.95 31.51 30.51 31.95 29.97 31.95 L 6.03 31.95 C 5.49 31.95 5.05 31.51 5.05 30.98 L 5.05 7.03 C 5.05 6.49 5.49 6.05 6.03 6.05 L 29.97 6.05 C 30.51 6.05 30.95 6.49 30.95 7.03 Z M 37 11.23 L 37 9.5 L 32.68 9.5 L 32.68 7.03 C 32.68 5.53 31.47 4.32 29.97 4.32 L 27.5 4.32 L 27.5 0 L 25.77 0 L 25.77 4.32 L 23.18 4.32 L 23.18 0 L 21.45 0 L 21.45 4.32 L 18.86 4.32 L 18.86 0 L 17.14 0 L 17.14 4.32 L 14.55 4.32 L 14.55 0 L 12.82 0 L 12.82 4.32 L 10.23 4.32 L 10.23 0 L 8.5 0 L 8.5 4.32 L 6.03 4.32 C 4.53 4.32 3.32 5.53 3.32 7.03 L 3.32 9.5 L -1 9.5 L -1 11.23 L 3.32 11.23 L 3.32 13.82 L -1 13.82 L -1 15.55 L 3.32 15.55 L 3.32 18.14 L -1 18.14 L -1 19.86 L 3.32 19.86 L 3.32 22.45 L -1 22.45 L -1 24.18 L 3.32 24.18 L 3.32 26.77 L -1 26.77 L -1 28.5 L 3.32 28.5 L 3.32 30.98 C 3.32 32.47 4.53 33.68 6.03 33.68 L 8.5 33.68 L 8.5 38 L 10.23 38 L 10.23 33.68 L 12.82 33.68 L 12.82 38 L 14.55 38 L 14.55 33.68 L 17.14 33.68 L 17.14 38 L 18.86 38 L 18.86 33.68 L 21.45 33.68 L 21.45 38 L 23.18 38 L 23.18 33.68 L 25.77 33.68 L 25.77 38 L 27.5 38 L 27.5 33.68 L 29.97 33.68 C 31.47 33.68 32.68 32.47 32.68 30.98 L 32.68 28.5 L 37 28.5 L 37 26.77 L 32.68 26.77 L 32.68 24.18 L 37 24.18 L 37 22.45 L 32.68 22.45 L 32.68 19.86 L 37 19.86 L 37 18.14 L 32.68 18.14 L 32.68 15.55 L 37 15.55 L 37 13.82 L 32.68 13.82 L 32.68 11.23 Z" fill="#fefefe" stroke="none" pointer-events="all" style="fill: rgb(254, 254, 254);"/></g></g><g data-cell-id="r5VThmamOhIpFtYYSAC9-9"><g transform="translate(0.5,0.5)"><path d="M 37 69 Q 78 69 110.82 68.78" fill="none" stroke="#000000" stroke-width="1.97" stroke-miterlimit="10" pointer-events="stroke" stroke-dasharray="8" style="stroke: light-dark(rgb(0, 0, 0), rgb(255, 255, 255)); animation: 3000ms linear 0s infinite normal none running ge-flow-animation-g1DIMzR0uSa8WiUmmkkf; stroke-dashoffset: 16;"/><path d="M 116.8 68.74 L 108.86 72.78 L 110.82 68.78 L 108.8 64.81 Z" fill="#000000" stroke="#000000" stroke-width="1.97" stroke-miterlimit="10" pointer-events="all" style="fill: light-dark(rgb(0, 0, 0), rgb(255, 255, 255)); stroke: light-dark(rgb(0, 0, 0), rgb(255, 255, 255));"/></g></g><g data-cell-id="r5VThmamOhIpFtYYSAC9-2"><g transform="translate(0.5,0.5)"><rect x="-1" y="50" width="38" height="38" fill="none" stroke="none" pointer-events="all"/><path d="M 9.74 65.87 C 9.06 65.87 8.51 65.32 8.51 64.64 C 8.51 64.09 9.23 62.72 9.74 61.8 C 10.26 62.72 10.98 64.09 10.98 64.64 C 10.98 65.32 10.42 65.87 9.74 65.87 Z M 10.51 59.63 C 10.37 59.34 10.07 59.15 9.74 59.16 C 9.41 59.16 9.11 59.34 8.97 59.63 L 8.54 60.4 C 7.61 62.04 6.78 63.6 6.78 64.64 C 6.78 66.27 8.11 67.6 9.74 67.6 C 11.38 67.6 12.7 66.27 12.7 64.64 C 12.7 63.6 11.87 62.04 10.94 60.4 Z M 23.18 71.59 L 26.64 71.59 L 26.64 69.86 L 23.18 69.86 Z M 23.18 68.14 L 27.5 68.14 L 27.5 66.41 L 23.18 66.41 Z M 23.18 64.68 L 26.64 64.68 L 26.64 62.95 L 23.18 62.95 Z M 23.18 61.23 L 27.5 61.23 L 27.5 59.5 L 23.18 59.5 Z M 18 76.75 C 17.52 76.75 17.14 76.37 17.14 75.89 C 17.14 75.41 17.52 75.03 18 75.03 C 18.48 75.03 18.86 75.41 18.86 75.89 C 18.86 76.37 18.48 76.75 18 76.75 Z M 18.86 73.46 L 18.86 63.82 L 17.14 63.82 L 17.14 73.46 C 16.13 73.82 15.41 74.76 15.41 75.89 C 15.41 77.32 16.57 78.48 18 78.48 C 19.43 78.48 20.59 77.32 20.59 75.89 C 20.59 74.76 19.87 73.82 18.86 73.46 Z M 20.18 78.57 C 19.36 79.24 18.32 79.49 17.25 79.27 C 15.92 78.99 14.85 77.89 14.61 76.54 C 14.36 75.22 14.86 73.95 15.93 73.14 L 16.27 72.88 L 16.27 60.36 C 16.27 59.41 17.05 58.64 18 58.64 C 18.95 58.64 19.73 59.41 19.73 60.36 L 19.73 72.88 L 20.07 73.14 C 20.95 73.81 21.45 74.81 21.45 75.89 C 21.45 76.93 20.99 77.91 20.18 78.57 Z M 21.45 72.05 L 21.45 60.36 C 21.45 58.46 19.91 56.91 18 56.91 C 16.09 56.91 14.55 58.46 14.55 60.36 L 14.55 72.05 C 13.2 73.25 12.58 75.05 12.91 76.85 C 13.28 78.89 14.88 80.54 16.9 80.96 C 17.26 81.03 17.63 81.07 17.99 81.07 C 19.19 81.07 20.34 80.66 21.27 79.91 C 22.48 78.93 23.18 77.45 23.18 75.89 C 23.18 74.41 22.56 73.03 21.45 72.05 Z M 30.95 80.97 C 30.95 81.51 30.52 81.95 29.98 81.95 L 6.03 81.95 C 5.49 81.95 5.05 81.51 5.05 80.97 L 5.05 57.02 C 5.05 56.49 5.49 56.05 6.03 56.05 L 29.98 56.05 C 30.52 56.05 30.95 56.49 30.95 57.02 Z M 37 61.23 L 37 59.5 L 32.68 59.5 L 32.68 57.02 C 32.68 55.53 31.47 54.32 29.98 54.32 L 27.5 54.32 L 27.5 50 L 25.77 50 L 25.77 54.32 L 23.18 54.32 L 23.18 50 L 21.45 50 L 21.45 54.32 L 18.86 54.32 L 18.86 50 L 17.14 50 L 17.14 54.32 L 14.55 54.32 L 14.55 50 L 12.82 50 L 12.82 54.32 L 10.23 54.32 L 10.23 50 L 8.5 50 L 8.5 54.32 L 6.03 54.32 C 4.53 54.32 3.32 55.53 3.32 57.02 L 3.32 59.5 L -1 59.5 L -1 61.23 L 3.32 61.23 L 3.32 63.82 L -1 63.82 L -1 65.55 L 3.32 65.55 L 3.32 68.14 L -1 68.14 L -1 69.86 L 3.32 69.86 L 3.32 72.45 L -1 72.45 L -1 74.18 L 3.32 74.18 L 3.32 76.77 L -1 76.77 L -1 78.5 L 3.32 78.5 L 3.32 80.97 C 3.32 82.47 4.53 83.68 6.03 83.68 L 8.5 83.68 L 8.5 88 L 10.23 88 L 10.23 83.68 L 12.82 83.68 L 12.82 88 L 14.55 88 L 14.55 83.68 L 17.14 83.68 L 17.14 88 L 18.86 88 L 18.86 83.68 L 21.45 83.68 L 21.45 88 L 23.18 88 L 23.18 83.68 L 25.77 83.68 L 25.77 88 L 27.5 88 L 27.5 83.68 L 29.98 83.68 C 31.47 83.68 32.68 82.47 32.68 80.97 L 32.68 78.5 L 37 78.5 L 37 76.77 L 32.68 76.77 L 32.68 74.18 L 37 74.18 L 37 72.45 L 32.68 72.45 L 32.68 69.86 L 37 69.86 L 37 68.14 L 32.68 68.14 L 32.68 65.55 L 37 65.55 L 37 63.82 L 32.68 63.82 L 32.68 61.23 Z" fill="#fefefe" stroke="none" pointer-events="all" style="fill: rgb(254, 254, 254);"/></g></g><g data-cell-id="r5VThmamOhIpFtYYSAC9-3"><g transform="translate(0.5,0.5)"><rect x="-1" y="100" width="40" height="40" fill="none" stroke="none" pointer-events="all"/><path d="M 19 128.16 C 18.68 128.16 18.38 127.99 18.21 127.71 C 18.05 127.43 18.05 127.08 18.21 126.8 C 18.38 126.52 18.68 126.34 19 126.34 C 19.32 126.34 19.62 126.52 19.79 126.8 C 19.95 127.08 19.95 127.43 19.79 127.71 C 19.62 127.99 19.32 128.16 19 128.16 Z M 19.91 124.69 L 19.91 114.55 L 18.09 114.55 L 18.09 124.69 C 17.04 125.07 16.27 126.07 16.27 127.25 C 16.27 128.76 17.5 129.98 19 129.98 C 20.5 129.98 21.73 128.76 21.73 127.25 C 21.73 126.07 20.96 125.07 19.91 124.69 Z M 21.29 130.07 C 20.43 130.78 19.33 131.04 18.21 130.81 C 16.81 130.52 15.69 129.36 15.43 127.94 C 15.16 126.58 15.7 125.18 16.82 124.36 L 17.18 124.09 L 17.18 110.91 C 17.18 109.91 18 109.09 19 109.09 C 20 109.09 20.82 109.91 20.82 110.91 L 20.82 124.09 L 21.18 124.36 C 22.11 125.06 22.64 126.12 22.64 127.25 C 22.64 128.35 22.15 129.38 21.29 130.07 Z M 22.64 123.21 L 22.64 110.91 C 22.64 108.9 21.01 107.27 19 107.27 C 16.99 107.27 15.36 108.9 15.36 110.91 L 15.36 123.21 C 13.95 124.48 13.29 126.37 13.64 128.27 C 14.03 130.41 15.72 132.15 17.84 132.59 C 18.22 132.67 18.61 132.71 18.99 132.71 C 20.25 132.71 21.47 132.28 22.44 131.48 C 23.72 130.45 24.46 128.9 24.45 127.25 C 24.46 125.71 23.79 124.23 22.64 123.21 Z M 24.45 122.73 L 28.09 122.73 L 28.09 120.91 L 24.45 120.91 Z M 24.45 119.09 L 29 119.09 L 29 117.27 L 24.45 117.27 Z M 24.45 115.45 L 28.09 115.45 L 28.09 113.64 L 24.45 113.64 Z M 24.45 111.82 L 29 111.82 L 29 110 L 24.45 110 Z M 32.64 132.61 C 32.64 133.17 32.17 133.64 31.6 133.64 L 6.4 133.64 C 5.83 133.64 5.36 133.17 5.36 132.61 L 5.36 107.4 C 5.36 106.83 5.83 106.36 6.4 106.36 L 31.6 106.36 C 32.17 106.36 32.64 106.83 32.64 107.4 Z M 39 111.82 L 39 110 L 34.45 110 L 34.45 107.4 C 34.45 105.82 33.18 104.55 31.6 104.55 L 29 104.55 L 29 100 L 27.18 100 L 27.18 104.55 L 24.45 104.55 L 24.45 100 L 22.64 100 L 22.64 104.55 L 19.91 104.55 L 19.91 100 L 18.09 100 L 18.09 104.55 L 15.36 104.55 L 15.36 100 L 13.55 100 L 13.55 104.55 L 10.82 104.55 L 10.82 100 L 9 100 L 9 104.55 L 6.4 104.55 C 4.82 104.55 3.55 105.82 3.55 107.4 L 3.55 110 L -1 110 L -1 111.82 L 3.55 111.82 L 3.55 114.55 L -1 114.55 L -1 116.36 L 3.55 116.36 L 3.55 119.09 L -1 119.09 L -1 120.91 L 3.55 120.91 L 3.55 123.64 L -1 123.64 L -1 125.45 L 3.55 125.45 L 3.55 128.18 L -1 128.18 L -1 130 L 3.55 130 L 3.55 132.61 C 3.55 134.18 4.82 135.45 6.4 135.45 L 9 135.45 L 9 140 L 10.82 140 L 10.82 135.45 L 13.55 135.45 L 13.55 140 L 15.36 140 L 15.36 135.45 L 18.09 135.45 L 18.09 140 L 19.91 140 L 19.91 135.45 L 22.64 135.45 L 22.64 140 L 24.45 140 L 24.45 135.45 L 27.18 135.45 L 27.18 140 L 29 140 L 29 135.45 L 31.6 135.45 C 33.18 135.45 34.45 134.18 34.45 132.61 L 34.45 130 L 39 130 L 39 128.18 L 34.45 128.18 L 34.45 125.45 L 39 125.45 L 39 123.64 L 34.45 123.64 L 34.45 120.91 L 39 120.91 L 39 119.09 L 34.45 119.09 L 34.45 116.36 L 39 116.36 L 39 114.55 L 34.45 114.55 L 34.45 111.82 Z" fill="#fefefe" stroke="none" pointer-events="all" style="fill: rgb(254, 254, 254);"/></g></g><g data-cell-id="r5VThmamOhIpFtYYSAC9-5"><g><path d="M 189 29.63 L 267 29.63 L 267 107.63 L 189 107.63 Z" fill="none" stroke="none" pointer-events="all"/><path d="M 226.87 76.01 L 226.87 67.72 L 220.91 64.27 L 222.03 62.34 L 226.87 65.15 L 226.87 42.64 L 220.77 39.82 L 214.62 42.92 L 214.62 50.83 L 212.39 50.83 L 212.39 44.04 L 206.83 46.85 L 206.83 55.36 L 213.51 59.1 L 220.19 55.4 L 220.19 46.38 L 222.42 46.38 L 222.42 56.05 C 222.42 56.46 222.2 56.83 221.84 57.03 L 214.62 61.03 L 214.62 66.42 L 221.83 70.59 C 222.19 70.79 222.42 71.16 222.42 71.57 L 222.42 78.57 Z M 226.87 78.58 L 213.19 86.46 L 212.08 84.53 L 220.19 79.86 L 220.19 72.23 L 213.55 68.62 L 206.12 72.9 L 205.01 70.97 L 212.39 66.71 L 212.4 61.03 L 205.75 57.31 L 199.03 61.03 L 199.03 66.04 L 204.87 62.67 L 205.98 64.61 L 199.03 68.61 L 199.03 74.77 L 205.69 78.9 L 212.38 75.05 L 213.49 76.98 L 206.83 80.9 L 206.83 88.98 L 212.83 92.62 L 221.26 87.56 L 222.4 89.47 L 214.99 93.92 L 220.82 97.46 L 226.87 94.66 Z M 229.1 41.92 L 229.1 95.38 C 229.1 95.81 228.85 96.2 228.45 96.39 L 221.21 99.73 C 221.07 99.8 220.91 99.83 220.75 99.83 C 220.55 99.83 220.35 99.78 220.17 99.67 L 205.13 90.56 C 204.8 90.35 204.6 89.99 204.6 89.6 L 204.6 80.9 L 197.33 76.34 C 197.01 76.14 196.81 75.78 196.81 75.39 L 196.81 74.71 C 196.81 74.69 196.81 74.67 196.81 74.65 L 196.81 61.12 C 196.81 61.1 196.81 61.08 196.81 61.06 L 196.81 60.38 C 196.81 59.97 197.03 59.6 197.38 59.4 L 204.6 55.4 L 204.6 46.17 C 204.6 45.75 204.84 45.36 205.21 45.17 L 220.25 37.59 C 220.55 37.44 220.91 37.43 221.21 37.57 L 228.45 40.91 C 228.85 41.09 229.1 41.49 229.1 41.92 Z M 259.06 74.11 C 258.94 73.83 258.7 73.61 258.41 73.51 L 254.58 72.19 C 254.9 69.79 254.9 67.38 254.57 64.99 L 258.39 63.65 C 258.68 63.55 258.91 63.33 259.04 63.05 C 259.16 62.77 259.17 62.45 259.05 62.17 L 254.45 51.14 C 254.34 50.86 254.11 50.64 253.82 50.53 C 253.54 50.42 253.22 50.44 252.94 50.57 L 249.28 52.35 C 247.82 50.43 246.11 48.73 244.19 47.28 L 245.95 43.61 C 246.08 43.34 246.1 43.02 245.99 42.73 C 245.88 42.45 245.65 42.22 245.37 42.1 L 234.32 37.55 C 234.04 37.44 233.72 37.44 233.44 37.57 C 233.16 37.7 232.95 37.93 232.85 38.22 L 231.21 42.94 L 233.32 43.67 L 234.57 40.06 L 243.43 43.71 L 241.78 47.15 C 241.55 47.64 241.7 48.23 242.15 48.55 C 244.43 50.15 246.41 52.12 248.03 54.4 C 248.34 54.84 248.93 55 249.42 54.76 L 252.85 53.09 L 256.54 61.94 L 252.95 63.2 C 252.44 63.38 252.13 63.91 252.23 64.44 C 252.71 67.2 252.71 69.99 252.25 72.75 C 252.16 73.29 252.46 73.81 252.98 73.99 L 256.57 75.23 L 252.92 84.1 L 249.49 82.45 C 249 82.21 248.41 82.37 248.1 82.81 C 246.5 85.1 244.52 87.07 242.24 88.7 C 241.79 89.01 241.64 89.6 241.88 90.09 L 243.54 93.52 L 234.7 97.21 L 233.43 93.61 L 231.33 94.35 L 232.98 99.06 C 233.09 99.35 233.3 99.58 233.58 99.7 C 233.73 99.77 233.88 99.8 234.04 99.8 C 234.18 99.8 234.33 99.77 234.46 99.72 L 245.49 95.12 C 245.77 95 245.99 94.77 246.1 94.48 C 246.21 94.2 246.2 93.88 246.06 93.6 L 244.29 89.95 C 246.21 88.48 247.91 86.78 249.36 84.86 L 253.02 86.61 C 253.3 86.75 253.62 86.76 253.9 86.65 C 254.19 86.54 254.42 86.32 254.53 86.04 L 259.08 74.99 C 259.19 74.7 259.19 74.39 259.06 74.11 Z M 240.23 68.65 C 240.23 63.69 236.9 59.28 232.14 57.93 L 232.74 55.79 C 238.46 57.41 242.46 62.7 242.46 68.65 C 242.46 74.61 238.46 79.9 232.72 81.51 L 232.12 79.37 C 236.9 78.03 240.23 73.62 240.23 68.65 Z" fill="#ffffff" stroke="none" pointer-events="all" style="fill: rgb(255, 255, 255);"/></g></g><g data-cell-id="r5VThmamOhIpFtYYSAC9-11"><g transform="translate(0.5,0.5)"><path d="M 159 68.72 Q 174 68.72 180.82 68.66" fill="none" stroke="#000000" stroke-width="1.97" stroke-miterlimit="10" pointer-events="stroke" stroke-dasharray="8" style="stroke: light-dark(rgb(0, 0, 0), rgb(255, 255, 255)); animation: 3000ms linear 0s infinite normal none running ge-flow-animation-g1DIMzR0uSa8WiUmmkkf; stroke-dashoffset: 16;"/><path d="M 186.8 68.61 L 178.87 72.66 L 180.82 68.66 L 178.79 64.7 Z" fill="#000000" stroke="#000000" stroke-width="1.97" stroke-miterlimit="10" pointer-events="all" style="fill: light-dark(rgb(0, 0, 0), rgb(255, 255, 255)); stroke: light-dark(rgb(0, 0, 0), rgb(255, 255, 255));"/></g></g><g data-cell-id="r5VThmamOhIpFtYYSAC9-12"><g transform="translate(0.5,0.5)"><path d="M 39 120.03 Q 79.03 120.03 79.03 94.52 Q 79.03 69 110.82 69" fill="none" stroke="#000000" stroke-width="1.97" stroke-miterlimit="10" pointer-events="stroke" stroke-dasharray="8" style="stroke: light-dark(rgb(0, 0, 0), rgb(255, 255, 255)); animation: 3000ms linear 0s infinite normal none running ge-flow-animation-g1DIMzR0uSa8WiUmmkkf; stroke-dashoffset: 16;"/><path d="M 116.8 69 L 108.83 72.98 L 110.82 69 L 108.83 65.02 Z" fill="#000000" stroke="#000000" stroke-width="1.97" stroke-miterlimit="10" pointer-events="all" style="fill: light-dark(rgb(0, 0, 0), rgb(255, 255, 255)); stroke: light-dark(rgb(0, 0, 0), rgb(255, 255, 255));"/></g></g><g data-cell-id="r5VThmamOhIpFtYYSAC9-6"><g transform="translate(0.5,0.5)"><path d="M 119 80.96 C 120.93 82.44 124.4 83.72 128.3 84.39 C 135.17 85.56 142.5 85.54 149.06 84.5 C 153.12 83.85 156.66 82.69 159 80.97 L 159 91.87 C 158.69 94.88 155.92 96.47 152.93 97.54 C 146.14 99.72 134.49 100 126.22 97.9 C 122.78 96.91 119.3 95.25 119 91.87 Z M 119 43.48 C 119 40.6 125.21 37.59 138.62 37.25 C 151.93 37.25 159 40.55 159 43.47 C 159 46.7 150.43 49.66 139.91 49.66 C 129.12 49.8 119 47.18 119 43.48 Z M 119 47.84 C 120.93 49.32 124.4 50.6 128.3 51.27 C 135.17 52.44 142.5 52.42 149.06 51.38 C 153.12 50.73 156.66 49.57 159 47.85 L 159 58.75 C 158.69 61.76 155.92 63.35 152.93 64.42 C 146.14 66.6 134.49 66.88 126.22 64.78 C 122.78 63.79 119.3 62.12 119 58.75 Z M 119 64.33 C 120.93 65.8 124.4 67.09 128.3 67.75 C 135.17 68.93 142.5 68.9 149.06 67.86 C 153.12 67.22 156.66 66.05 159 64.33 L 159 75.24 C 158.69 78.25 155.92 79.84 152.93 80.9 C 146.14 83.09 134.49 83.37 126.22 81.26 C 122.78 80.27 119.3 78.6 119 75.23 Z" fill="#fefefe" stroke="none" pointer-events="all" style="fill: rgb(254, 254, 254);"/></g></g></g></g></g></svg>